<?xml version="1.0" encoding="utf-8"?>
<!-- Generator: Adobe Illustrator 24.0.0, SVG Export Plug-In . SVG Version: 6.00 Build 0)  -->
<svg version="1.1" id="Layer_1" xmlns="http://www.w3.org/2000/svg" xmlns:xlink="http://www.w3.org/1999/xlink" x="0px" y="0px"
	 viewBox="0 0 48 48" style="enable-background:new 0 0 48 48;" xml:space="preserve">
<style type="text/css">
	.st0{fill:#016A37;}
	.st1{fill-rule:evenodd;clip-rule:evenodd;fill:#FFFFFF;}
</style>
<path class="st0" d="M38.64,48H9.36C4.19,48,0,43.81,0,38.64V9.36C0,4.19,4.19,0,9.36,0h29.29C43.81,0,48,4.19,48,9.36v29.29
	C48,43.81,43.81,48,38.64,48z"/>
<g>
	<path class="st1" d="M36.43,6.19c-1.21,5.73-3.94,8.21-5.74,11.23c-1.76,2.94-2.63,6.4-0.35,13.88c0.13,0.42,0.25,0.8,0.35,1.15
		c1.3,4.09,1.36,3.32,2.95,9.87c5.48-6.12,7.89-11.73,8.07-17.52v-1.38C41.55,18.05,39.58,12.49,36.43,6.19z M34.16,39.17
		l2.23-10.09l-5.8-9.3l5.8,8.83l-1.6-9.83l1.86-10.44l-1.57,10.28l1.72,10.45l-1.87,9.5L34.16,39.17z M38.69,13.73l-3.07,6.51
		l-0.12-0.61L38.69,13.73z M36.49,31.4l0.15-0.67l3.72-5.36L36.49,31.4z"/>
	<path class="st1" d="M30.7,38.83C25.26,26.82,16.18,23.56,2.45,22.74c8.62,7.72,3.3,14.25,18.74,17.81
		c5.03,1.16,4.36,0.68,9.51,2.14c0.5,0.14,1.06,0.3,1.69,0.49C31.87,41.61,31.3,40.17,30.7,38.83z M24.33,35.25l-0.51-0.47
		l-2.79-5.89L24.33,35.25z M14.23,30.46l-0.59-0.2l-3.53-5.71L14.23,30.46z M22.28,34.18l-10.96,0.39l10.55-0.63l-9.33-3.51
		l-8.13-6.82l8.13,6.48l9.91,3.71l7.3,6.36l0.16,0.97L22.28,34.18z"/>
</g>
</svg>
